<mxfile host="app.diagrams.net" modified="2020-12-08T20:02:00.371Z" agent="5.0 (X11; Linux x86_64) AppleWebKit/537.36 (KHTML, like Gecko) Chrome/85.0.4183.121 Safari/537.36" etag="ddKj1vbEf-Lc0LwK0eGZ" version="13.11.0" type="github">
  <diagram name="p01" id="DLQpAvPrtUbYdDvNZ_r8">
    <mxGraphModel dx="1422" dy="806" grid="1" gridSize="10" guides="1" tooltips="1" connect="1" arrows="1" fold="1" page="1" pageScale="1" pageWidth="1169" pageHeight="827" math="1" shadow="0">
      <root>
        <mxCell id="KzKFW0jnUTyGEeZzbuEv-0" />
        <mxCell id="KzKFW0jnUTyGEeZzbuEv-1" parent="KzKFW0jnUTyGEeZzbuEv-0" />
        <mxCell id="KzKFW0jnUTyGEeZzbuEv-2" value="&lt;font color=&quot;#006633&quot; face=&quot;garamond&quot;&gt;&lt;span style=&quot;font-size: 36px&quot;&gt;&lt;b&gt;Касание точки прямой&lt;/b&gt;&lt;/span&gt;&lt;/font&gt;" style="text;html=1;align=left;verticalAlign=middle;whiteSpace=wrap;rounded=0;" parent="KzKFW0jnUTyGEeZzbuEv-1" vertex="1">
          <mxGeometry x="40" y="39" width="920" height="20" as="geometry" />
        </mxCell>
        <mxCell id="KzKFW0jnUTyGEeZzbuEv-3" value="&lt;div&gt;&lt;/div&gt;&lt;b style=&quot;font-size: 28px ; font-family: &amp;#34;times new roman&amp;#34;&quot;&gt;Опр.&lt;/b&gt;&lt;span style=&quot;font-size: 28px ; font-family: &amp;#34;times new roman&amp;#34;&quot;&gt;&amp;nbsp;&lt;/span&gt;&lt;i style=&quot;font-size: 28px ; font-family: &amp;#34;times new roman&amp;#34;&quot;&gt;Отображение&amp;nbsp;&lt;/i&gt;&lt;span style=&quot;color: rgb(51 , 51 , 51) ; font-family: &amp;#34;u0000&amp;#34; ; font-size: 28px ; text-align: center ; background-color: rgb(255 , 255 , 255)&quot;&gt;&lt;i&gt;ψ&lt;/i&gt;&amp;nbsp;&lt;/span&gt;&lt;i style=&quot;font-size: 28px ; font-family: &amp;#34;times new roman&amp;#34;&quot;&gt;множества точек прямой l проективной плоскости&lt;/i&gt;&lt;span style=&quot;color: rgb(51 , 51 , 51) ; font-family: &amp;#34;u0000&amp;#34; ; font-size: 28px ; text-align: center ; background-color: rgb(255 , 255 , 255)&quot;&gt;&lt;br&gt;&lt;/span&gt;&lt;font face=&quot;Times New Roman&quot; style=&quot;font-size: 28px&quot;&gt;&lt;div&gt;&lt;i&gt;во множество точек другой прямой l&#39;&amp;nbsp; проективной плоскости называется&amp;nbsp;&lt;/i&gt;&lt;/div&gt;&lt;i&gt;&lt;font face=&quot;Times New Roman&quot;&gt;&lt;i&gt;проективным, если оно является взаимно-однозначным и сохраняет &lt;br&gt;двойное отношение точек на прямых&lt;/i&gt;&lt;/font&gt;&lt;/i&gt;&lt;/font&gt;" style="text;html=1;align=left;verticalAlign=middle;resizable=0;points=[];autosize=1;" parent="KzKFW0jnUTyGEeZzbuEv-1" vertex="1">
          <mxGeometry x="50" y="110" width="930" height="80" as="geometry" />
        </mxCell>
      </root>
    </mxGraphModel>
  </diagram>
</mxfile>
